<svg width="42" height="34" viewBox="0 0 42 34" fill="none" xmlns="http://www.w3.org/2000/svg">
<path d="M21.3396 24.2782C20.9614 24.2782 20.6526 24.5775 20.6526 24.9493V26.2739C20.6526 26.6457 20.9614 26.9449 21.3396 26.9449C21.7178 26.9449 22.0265 26.6457 22.0265 26.2739V24.9493C22.0265 24.5775 21.7178 24.2782 21.3396 24.2782Z" fill="white" stroke="white" stroke-width="0.1"/>
<path d="M38.0581 15.0004L38.0581 15.0004C37.6069 12.8425 36.5951 10.8085 35.1321 9.11782C33.7237 7.49021 31.9214 6.20894 29.9118 5.40129C29.5828 4.06527 28.8927 2.68766 27.5386 1.65026C26.2205 0.640502 24.8931 0.445853 24.8338 0.437534L24.8338 0.437525C24.6374 0.410231 24.4377 0.467219 24.2872 0.594511C24.1366 0.72184 24.0498 0.906802 24.0498 1.10183V4.40538H21.8254C21.236 2.49128 19.4142 1.09327 17.2634 1.09327C15.0652 1.09327 13.2096 2.55321 12.6632 4.53233C9.51519 4.95808 6.61974 6.4488 4.46924 8.76229L4.50166 8.79243L4.46924 8.76229C2.19996 11.2038 0.95 14.3646 0.95 17.6624C0.95 25.0521 4.88387 31.0623 6.0891 32.7278C6.47046 33.2549 7.09453 33.5691 7.7582 33.5691H10.4692C11.5961 33.5691 12.515 32.675 12.515 31.5732V30.7716C13.1849 30.8693 13.8649 30.9194 14.5457 30.9194H20.6528V31.5732C20.6528 32.675 21.5717 33.5691 22.6986 33.5691H25.6765C26.634 33.5691 27.4756 32.9067 27.6767 31.9917L27.9969 30.5352C32.173 29.5336 35.5324 26.6771 37.1959 22.9705H39.6837C40.4359 22.9705 41.05 22.3736 41.05 21.6371V16.3377C41.05 15.981 40.9075 15.6458 40.6493 15.3941C40.3912 15.1425 40.0482 15.0041 39.6838 15.0041H39.6837H39.6837H39.6837H39.6836H39.6836H39.6836H39.6835L38.0592 15.0043C38.0587 15.003 38.0584 15.0017 38.0581 15.0004ZM39.6762 21.5869H39.6761V21.6284H37.7111C38.0469 20.5848 38.2538 19.4889 38.3138 18.3596C38.3337 17.9883 38.0411 17.6738 37.6633 17.6547C37.2857 17.636 36.9615 17.9187 36.9418 18.29C36.6746 23.3126 33.1861 27.6062 28.3218 29.0564L29.1936 25.0901C29.2736 24.7265 29.0358 24.3704 28.6656 24.2931C28.2961 24.2156 27.9301 24.4453 27.8503 24.8084L26.3334 31.7099C26.2678 32.0085 25.9919 32.227 25.6765 32.227H22.6984C22.3268 32.227 22.0266 31.9325 22.0266 31.5732V28.9235C22.0266 28.5517 21.7178 28.2524 21.3396 28.2524C20.9614 28.2524 20.6527 28.5517 20.6527 28.9235V29.5773H14.5455C13.8637 29.5773 13.1831 29.5213 12.5148 29.4125V24.949C12.5148 24.5772 12.2061 24.278 11.8279 24.278C11.4497 24.278 11.1409 24.5772 11.1409 24.949V31.5732C11.1409 31.9325 10.8407 32.2271 10.4691 32.2271H7.7582C7.53553 32.2271 7.33663 32.127 7.21107 31.9533L7.21106 31.9533C6.06414 30.3681 2.32391 24.6542 2.32391 17.6624C2.32391 14.699 3.44692 11.8586 5.48639 9.66446C7.34008 7.67005 9.80923 6.35586 12.5037 5.9137C12.5187 6.30168 12.5834 6.68523 12.695 7.05501H12.5074C12.1292 7.05501 11.8205 7.35424 11.8205 7.72604C11.8205 8.09784 12.1292 8.39707 12.5074 8.39707H22.0191C22.3974 8.39707 22.7061 8.09784 22.7061 7.72604C22.7061 7.35424 22.3974 7.05501 22.0191 7.05501H21.8315C21.9592 6.63247 22.0258 6.19201 22.0266 5.74736H24.0498V7.06358C24.0498 7.43538 24.3585 7.73461 24.7367 7.73461C25.1149 7.73461 25.4237 7.43538 25.4237 7.06358V1.98955C26.0183 2.21876 26.843 2.66722 27.5288 3.52269C28.2404 4.41024 28.8056 5.73964 28.8056 7.72612C28.8056 8.09792 29.1144 8.39715 29.4926 8.39715C29.8708 8.39715 30.1795 8.09792 30.1795 7.72612C30.1795 7.48823 30.1716 7.23838 30.1536 6.98052C31.6527 7.70537 32.9978 8.73045 34.0829 9.98435C35.3977 11.5038 36.3068 13.3312 36.712 15.269C36.8426 15.8939 37.4049 16.3465 38.0487 16.3464L39.6762 16.3463V21.5869ZM17.2633 2.4354C19.1334 2.4354 20.6527 3.9186 20.6527 5.73895C20.6527 6.19376 20.5552 6.64205 20.371 7.05517L14.1555 7.05517C13.9714 6.6419 13.8737 6.19375 13.8737 5.73895C13.8737 3.91852 15.3931 2.4354 17.2633 2.4354Z" fill="white" stroke="white" stroke-width="0.1"/>
<path d="M28.9116 15.4405L28.9116 15.4405C29.315 14.3857 30.3808 13.6794 31.5621 13.6794C32.7433 13.6794 33.8093 14.3858 34.2125 15.4405L28.9116 15.4405ZM28.9116 15.4405C28.7784 15.7888 28.9605 16.1751 29.3155 16.3041M28.9116 15.4405L29.3155 16.3041M29.3155 16.3041C29.67 16.4331 30.0657 16.2577 30.1986 15.9101L29.3155 16.3041ZM30.1986 15.91C30.4011 15.3805 30.9479 15.0214 31.562 15.0214C32.1761 15.0214 32.723 15.3805 32.9255 15.9101C33.0289 16.1805 33.2913 16.3464 33.5691 16.3464C33.6488 16.3464 33.7297 16.3328 33.8086 16.3041C33.8086 16.3041 33.8086 16.3041 33.8086 16.3041L33.7915 16.2571L30.1986 15.91Z" fill="white" stroke="white" stroke-width="0.1"/>
<path d="M20.2116 18.0757C19.5601 17.6339 18.7201 17.3632 17.9502 17.1509V14.072C18.5451 14.1491 19.0484 14.3214 19.4047 14.5342C19.7758 14.7558 19.9733 15.0121 19.9733 15.2406C19.9733 15.6124 20.2821 15.9116 20.6603 15.9116C21.0385 15.9116 21.3472 15.6124 21.3472 15.2406C21.3472 14.585 20.9732 13.9989 20.3589 13.5557C19.754 13.1193 18.9127 12.8182 17.9502 12.7204V12.6944C17.9502 12.3226 17.6414 12.0234 17.2632 12.0234C16.885 12.0234 16.5763 12.3226 16.5763 12.6944V12.7204C15.6138 12.8182 14.7724 13.1193 14.1676 13.5557C13.5533 13.9989 13.1792 14.585 13.1792 15.2406C13.1792 16.1681 13.6508 16.799 14.3149 17.2494C14.9663 17.6912 15.8063 17.9619 16.5763 18.1742V21.2531C15.9814 21.176 15.4781 21.0037 15.1218 20.7909C14.7506 20.5693 14.5532 20.313 14.5532 20.0845C14.5532 19.7127 14.2444 19.4135 13.8662 19.4135C13.488 19.4135 13.1792 19.7127 13.1792 20.0845C13.1792 20.7401 13.5533 21.3262 14.1676 21.7694C14.7724 22.2058 15.6138 22.5069 16.5763 22.6047V22.6307C16.5763 23.0025 16.885 23.3017 17.2632 23.3017C17.6414 23.3017 17.9502 23.0025 17.9502 22.6307V22.6047C18.9127 22.5069 19.754 22.2058 20.3589 21.7694C20.9732 21.3262 21.3472 20.7401 21.3472 20.0845C21.3472 19.157 20.8757 18.5261 20.2116 18.0757ZM16.5763 14.072V16.7681C15.8286 16.5358 15.3248 16.3146 15.0067 16.0733C14.6827 15.8275 14.5532 15.5627 14.5532 15.2406C14.5532 15.0121 14.7506 14.7558 15.1218 14.5342C15.4781 14.3214 15.9814 14.1491 16.5763 14.072ZM19.4047 20.791C19.0484 21.0038 18.545 21.1761 17.9502 21.2532V18.557C18.6979 18.7893 19.2016 19.0105 19.5198 19.2519C19.8437 19.4976 19.9733 19.7625 19.9733 20.0846C19.9733 20.3131 19.7758 20.5694 19.4047 20.791Z" fill="white" stroke="white" stroke-width="0.1"/>
</svg>
